# xmcd
#
# Track frame offsets: 
#        150
#        23047
#        43995
#
# Disc length: 1034 seconds
#
# Revision: 2
# Processed by: cddbd v1.5.1PL0 Copyright (c) Steve Scherf et al.
# Submitted via: ExactAudioCopy v0.95a5
#
DISCID=1f040803
DTITLE=STRATOVARIUS - I WALK TO MY OWN SONG
DYEAR=2003
DGENRE=Heavy Metal
TTITLE0=I Walk To My Own Song
TTITLE1=Forever (Live)
TTITLE2=Black Diamond (Live)
EXTD=
EXTT0=
EXTT1=
EXTT2=
PLAYORDER=
